<?xml version="1.0" encoding="UTF-8"?>
<svg xmlns="http://www.w3.org/2000/svg" version="1.1" xmlns:xlink="http://www.w3.org/1999/xlink" viewBox="0 0 255.3 166">
  <!-- Generator: Adobe Illustrator 29.6.1, SVG Export Plug-In . SVG Version: 2.1.1 Build 9)  -->
  <defs>
    <style>
      .st0 {
        fill: url(#radial-gradient5);
      }

      .st0, .st1, .st2, .st3, .st4, .st5, .st6 {
        mix-blend-mode: multiply;
      }

      .st0, .st4 {
        opacity: .2;
      }

      .st7 {
        fill: #ff0c06;
      }

      .st8 {
        fill: #fff;
      }

      .st9 {
        opacity: .8;
      }

      .st10 {
        fill: #0098d6;
      }

      .st11 {
        opacity: .2;
      }

      .st1 {
        fill: url(#radial-gradient4);
        opacity: .2;
      }

      .st2 {
        fill: url(#radial-gradient3);
        opacity: .1;
      }

      .st12 {
        fill: none;
      }

      .st3 {
        fill: url(#radial-gradient2);
        opacity: .4;
      }

      .st13 {
        isolation: isolate;
      }

      .st4 {
        fill: url(#radial-gradient1);
      }

      .st5 {
        fill: url(#radial-gradient);
        opacity: .5;
      }

      .st14 {
        fill: #d53227;
      }

      .st15 {
        clip-path: url(#clippath);
      }

      .st6 {
        opacity: .5;
      }
    </style>
    <clipPath id="clippath">
      <path class="st14" d="M187.4,17.6h0c-5-4.1-12.5-3.4-16.6,1.6l-12.1,14.7h0c-8.9-7.4-21.6-6.9-29.8.6-.8.7-1.6,1.6-2.3,2.5l-2.9,3.5-7.4,9,6.5,5.3,5,4.1,5.1-6.2-5-4.1,2.3-2.8,2.5-3.1c.9-1.1,1.9-2,2.9-2.7,5.3-3.8,12.7-3.9,18.1.1l-38.1,46.4s0,0,0,0h0s-5.1,6.2-5.1,6.2h0s0,0,0,0l-5.8,7,6.5,5.3L177.4,24.5c1.3-1.5,3.5-1.7,5-.5h0c1.5,1.3,1.7,3.5.5,5l-45.5,55.4,6.2,5.1,45.4-55.2c4.1-5,3.4-12.5-1.6-16.6Z"/>
    </clipPath>
    <radialGradient id="radial-gradient" cx="-1121.6" cy="4875" fx="-1121.6" fy="4875" r="10" gradientTransform="translate(1693.1 -714.2) rotate(39.6) scale(.6 .3)" gradientUnits="userSpaceOnUse">
      <stop offset=".1" stop-color="#000"/>
      <stop offset=".3" stop-color="#171717" stop-opacity=".9"/>
      <stop offset=".5" stop-color="#565656" stop-opacity=".6"/>
      <stop offset=".7" stop-color="#929292" stop-opacity=".4"/>
      <stop offset="1" stop-color="#fff" stop-opacity="0"/>
    </radialGradient>
    <radialGradient id="radial-gradient1" cx="-1121.9" cy="11615" fx="-1121.9" fy="11615" r="11.4" gradientTransform="translate(1766.2 762.3) rotate(90) scale(.6 .1)" xlink:href="#radial-gradient"/>
    <radialGradient id="radial-gradient2" cx="-1122" cy="4892.1" fx="-1122" fy="4892.1" r="11" xlink:href="#radial-gradient"/>
    <radialGradient id="radial-gradient3" cx="-1122.5" cy="11656.8" fx="-1122.5" fy="11656.8" r="16.5" gradientTransform="translate(1731.3 -760.5) rotate(39.6) scale(.6 .1)" xlink:href="#radial-gradient"/>
    <radialGradient id="radial-gradient4" cx="307.7" cy="3144.7" fx="307.7" fy="3144.7" r="15.2" gradientTransform="translate(-778.9 -438.2) rotate(-50.4) scale(.6 .3)" xlink:href="#radial-gradient"/>
    <radialGradient id="radial-gradient5" cx="307.7" cy="7648.8" fx="307.7" fy="7648.8" r="11.4" gradientTransform="translate(-67.4 -1020) scale(.6 .1)" xlink:href="#radial-gradient"/>
  </defs>
  <g class="st13">
    <g id="Layer_1">
      <g>
        <g>
          <g class="st11">
            <path class="st8" d="M64.4,23.2l41.4,34.1-1.1,1.3c-8.4,10.2-7.7,25,1.2,34.4l-3.8,4.7c-.5.7-.8,1.5-.7,2.4s.5,1.6,1.2,2.2l6.5,5.3c.6.5,1.3.7,2,.7s1.9-.4,2.5-1.2L179.9,26.5c0,0,.1-.1.2-.1,0,0,.2,0,.3,0,.1.1.2.3,0,.5l-45.5,55.4c-1.1,1.4-.9,3.4.4,4.5l6.2,5.1c.7.5,1.5.8,2.4.7.9,0,1.6-.5,2.2-1.2l45.4-55.2c5.3-6.4,4.3-15.9-2.1-21.2-3.1-2.5-7-3.7-11-3.3-4,.4-7.6,2.3-10.1,5.4l-10.1,12.3c-8.6-5.5-19.7-5.4-28.2,0-1.1-.6-2.1-.9-3.3-.8-.2,0-.5,0-.7.1-2.3-1.1-4.7-1.9-7.2-2.3,2.3-1.6,3.9-4.3,3.9-7.4,0-5-4.1-9-9-9s-9,4.1-9,9,1.8,6.2,4.5,7.8c-3.7.9-7.2,2.6-10.3,5.1l-24.8-20.4c-1.4-1.1-3.4-.9-4.5.4l-5.4,6.6c-.5.7-.8,1.5-.7,2.4,0,.9.5,1.6,1.2,2.2ZM116,67.8l1.1-1.3,6.4,5.2-8.1,9.9c-2.8-4.1-2.7-9.8.7-13.8h0ZM118.3,41.1c0,.2.1.3.2.5l-3.3,4-4.6-3.8c2.3-1.3,5.2-1.6,7.7-.7ZM145.9,44.4l-4.5-3.7c2.4-.6,4.9-.5,7.2.4l-2.7,3.3Z"/>
            <path class="st8" d="M224.8,134.9h12.6c1.8,0,3.2-1.4,3.2-3.2v-11c0-1.8-1.4-3.2-3.2-3.2h-1c-.3-1.2-.9-2.2-1.9-2.8-.5-2-2.3-3.5-4.5-3.5s-4,1.5-4.5,3.5c-1,.7-1.7,1.7-1.9,3-.2,0-.3.1-.5.2-.4-.2-1-.4-1.5-.4h-3.1c-.5,0-1,.1-1.4.3-.4-.2-.9-.3-1.4-.3h-1.2c.3-1,0-2.1-.6-2.9l-1.9-2.3c-.5-.7-1.3-1.1-2.2-1.2-.9,0-1.7.2-2.4.7l-5.8,4.7c-.7-1.6-2.4-2.7-4.2-2.7s-1.3.1-1.8.4c-.6-.2-1.2-.4-1.8-.4-1.7,0-3.2.9-4,2.2-.4-1.3-1.6-2.2-3-2.2h-3.2c-.3,0-.6,0-.9.1-.3,0-.6-.1-.9-.1h-3.2c-1.8,0-3.2,1.4-3.2,3.2v.4c-.2,0-.4,0-.7,0h-7.9c-.4,0-.8,0-1.1.2-.3-.1-.7-.2-1-.2-.5-2.1-2.3-3.7-4.6-3.7s-4.7,2.1-4.7,4.7,0,.8.2,1.2c-.5.5-1,1-1.4,1.6v-4.1c0-1.8-1.4-3.2-3.2-3.2h-3.2c-1.8,0-3.2,1.4-3.2,3.2v4h-4c-.6,0-1.2.2-1.7.5v-4.4c0-1.8-1.4-3.2-3.2-3.2h-3.2c-.3,0-.6,0-.9.1-.3,0-.6-.1-.9-.1h-3.2c-1.8,0-3.2,1.4-3.2,3.2v.4h-3.8c-1,0-1.9.1-2.7.4v-.8c0-1.8-1.4-3.2-3.2-3.2h-2.9c-1.8,0-3.2,1.4-3.2,3.2v.4h-1.2c-.5,0-.9,0-1.3.3-.4-.2-.8-.3-1.3-.3h-3c-.3,0-.6,0-.9.1-.4-2.2-2.3-3.8-4.6-3.8s-1.3.1-1.8.4c-.6-.2-1.2-.4-1.8-.4-1.3,0-2.5.6-3.4,1.5-.6-.8-1.5-1.3-2.6-1.3h-3.1c-.2,0-.4,0-.6,0-.2,0-.4,0-.6,0h-3.1c-1.8,0-3.2,1.4-3.2,3.2v.3h-7c-.4,0-.8,0-1.2.2-.4-.2-.8-.3-1.3-.3h-10.2c-.3,0-.5,0-.8,0-.3,0-.5-.1-.8-.1h-7.8c-.2,0-.4,0-.7,0-.1,0-.2,0-.3,0h-7.9c-.2,0-.3,0-.5,0-.2,0-.5,0-.8,0h-6.9c-.5-2.1-2.3-3.6-4.5-3.6s-1.3.1-1.8.4c-.6-.2-1.2-.4-1.8-.4-2.5,0-4.6,2-4.7,4.6-.6.6-.9,1.4-.9,2.3v11c0,1.8,1.4,3.2,3.2,3.2h3.4c.2,0,.5,0,.7,0,.2,0,.5,0,.7,0h3.4c.2,0,.4,0,.6,0,.2,0,.5,0,.7,0h5.9v.3c0,1.8,1.4,3.2,3.2,3.2h3.2c-.3.7-.4,1.4-.2,2.1l.2.8h-2.7c-.7,0-1.4.2-1.9.6v-2.1c0-1.8-1.4-3.2-3.2-3.2h-3.1c-.9,0-1.8.4-2.4,1.1-.6-.7-1.5-1.1-2.4-1.1h-3.7c-1.4,0-2.7.9-3.1,2.3l-3.4,11.5c-.3,1,0,2,.5,2.8.6.8,1.6,1.3,2.6,1.3h3c.8,0,1.5-.3,2.1-.8.6.5,1.3.8,2.1.8h3c.3,0,.6,0,.9-.1.3,0,.6.1.9.1h7.1c1.8,0,3.2-1.4,3.2-3.2v-1.9s0,0,0,0h2.5l.6,2.7c.3,1.5,1.6,2.5,3.1,2.5h3c.7,0,1.3-.2,1.8-.5.5.3,1.1.5,1.8.5h3.2c.5,0,1-.1,1.4-.3.4.2.9.3,1.4.3h3c.8,0,1.5-.3,2.1-.8.6.5,1.3.8,2.1.8h3c.3,0,.6,0,.9-.1.3,0,.6.1.9.1h3.1c.8,0,1.5-.3,2-.7.6.5,1.3.7,2,.7h3c.8,0,1.5-.3,2.1-.8.6.5,1.3.8,2.1.8h3c.4,0,.8,0,1.2-.2.4.1.8.2,1.2.2h3c.8,0,1.5-.3,2.1-.8.6.5,1.3.8,2.1.8h3c.9,0,1.8-.4,2.4-1.1,0,0,0,0,0,0,.6.7,1.5,1.1,2.4,1.1h2.6c.6,0,1.1-.2,1.6-.4.4.2.8.2,1.2.2h2.2c.4,0,.8,0,1.2-.2.5.3,1,.4,1.6.4h2.7c.4,0,.8,0,1.1-.2.3.1.7.2,1.1.2h7.1c.4,0,.8,0,1.1-.2.2,0,.4.1.7.1.6,0,1.7.1,2.8.1,2.6,0,4.7-.5,6.3-1.5.6.8,1.5,1.4,2.6,1.4h3.1c1.1,0,2-.5,2.6-1.3,1.4.9,3.2,1.4,5.3,1.4s1.5,0,2.5-.2c.3,0,.5.1.8.1h3c.8,0,1.5-.3,2.1-.8.6.5,1.3.8,2.1.8h3c.3,0,.6,0,.9-.1.3,0,.6.1.9.1h7.1c1.8,0,3.2-1.4,3.2-3.2h0c1.6,2.1,4.2,3.3,7.4,3.3s2.3,0,3.4-.4c.3,0,.5-.2.8-.4,1.1.6,2.4.9,3.8.9s3.1-.3,4.4-1.2c.8.7,1.9,1.1,3.1,1.1,0,.2.2.4.3.6.6.9,1.6,1.4,2.6,1.4s.2,0,.3,0l2-.2c.9,0,1.7-.5,2.2-1.1.3-.4.6-.7.8-1.1.4.2.8.3,1.3.3h7.1c.4,0,.8,0,1.1-.2.3.1.7.2,1.1.2h3.1c.9,0,1.6-.3,2.2-.9.5.5,1.1.8,1.9.8.6,0,1.7.1,2.8.1,2.8,0,5-.5,6.6-1.7,2.3-1.5,3.6-4.2,3.6-7.6s-1.9-6.3-3.5-7.3c-1.6-1.1-3.6-1.6-6.2-1.6s-2.6,0-3.6.3c-.4-.1-.7-.2-1.1-.2h-1.4c.2-.4.3-.9.3-1.4v-.3ZM201.5,151.7c-.3,0-.6-.2-.9-.4.3.1.6.2.9.2s0,0,.1,0c0,0,0,.2-.1.3,0,0,0,0,0,0ZM202.3,148.7c-.2,0-.4-.1-.6-.2,0,0,0-.1,0-.2.2,0,.4.2.6.4ZM230.3,114c-.1,0-.2,0-.3.1-.1,0-.2,0-.3-.1.1,0,.2,0,.3,0s.2,0,.3,0ZM198.9,117.4h-.5c0,0-.1-.1-.2-.2,0-.2,0-.3-.2-.5.3.1.6.4.8.6ZM193.1,116.8c0,.2-.1.3-.2.5,0,0-.1.1-.2.2h-.5c.2-.3.5-.5.8-.6ZM145.1,136.6h-3.1c-1.1,0-2,.5-2.6,1.3-1.5-.9-3.4-1.3-5.8-1.3s-2.7,0-3.7.3c-.1,0-.3,0-.4.1-.4-.2-.9-.3-1.4-.3h-6.8c-.6,0-1.1.2-1.6.4-.5-.3-1-.4-1.6-.4h-3.2c-.9,0-1.7.4-2.3,1-.2-.2-.5-.5-.8-.6.5-.6.9-1.3,1.1-2.1h18c.3,0,.6,0,.9-.1.3,0,.6.1.9.1h3.2c.5,0,1.1-.1,1.5-.4.5.2,1,.4,1.5.4h7.2c.3,0,.6,0,.9-.1.3,0,.6.1,1,.1h15.5c0,0,.2,0,.3,0v.4c0,.5.1,1,.4,1.5-.2,0-.5,0-.7,0h-3.7c-.8,0-1.6.3-2.2.9-.2-.1-.4-.3-.6-.4-1.1-.5-2.7-.6-3.5-.6-1.9,0-3.9.5-5.6,1.6-.6-.9-1.6-1.5-2.7-1.5ZM73.8,126.9c-.2.2-.5.4-.9.4s-.6-.1-.8-.3c0-.3.1-.6.1-.9v-1.2c.4-.3,1.1-.3,1.5,0v1.1c0,.3,0,.6.1.9ZM41.3,127v-2.1c.4-.3,1-.3,1.5,0v2.1c-.4.3-1.1.3-1.5,0ZM66.6,136.6h-3.7c-.6,0-1.2.2-1.8.5-.5-.3-1.1-.5-1.8-.5h-3c-.6,0-1.1.2-1.6.4-.5-.3-1-.4-1.6-.4h-2.5c-.6,0-1.2.2-1.7.5,0,0-.2-.1-.3-.2.3-.5.5-1.1.5-1.7v-.3h5.6c.1,0,.2,0,.3,0h14.9c0,0,.2,0,.3,0h4.4c0,0,.1,0,.2,0h.8c0,0,.1,0,.2,0h5.4c.1,0,.2,0,.3,0h.7c.2,0,.4,0,.6,0,.2,0,.4,0,.6,0h3.1c.7,0,1.3-.2,1.8-.6.5.4,1.1.6,1.8.6h3.4c.2,0,.5,0,.7,0,0,0,.1,0,.2,0,.1.7.4,1.2.8,1.8h-1.1c-.5,0-1.1.1-1.5.4-.5-.3-1.1-.5-1.7-.5h-2.5c-.6,0-1.2.2-1.7.5-.4-.2-.9-.3-1.4-.3h-3.7c-.7,0-1.3.2-1.9.6-.5-.4-1.2-.6-1.9-.6h-6.8c-.9,0-1.8.4-2.4,1.1-.6-.7-1.5-1.1-2.4-1.1ZM108.3,135.7c-.5,0-.9-.2-1.3-.5,0,0,0-.2,0-.3h.1c.3.3.6.5,1.1.5s.8-.2,1.1-.5h.4c-.3.5-.9.8-1.5.8ZM98,134.9c0,.1,0,.2,0,.4-.1-.1-.2-.2-.3-.4h.2ZM120.2,126h.8s-.8,0-.8,0h0ZM103.8,135s0,0,0,.1c0,0,0,0,0,0,0,0,0-.1,0-.2ZM171.7,126.9c-.2.2-.5.3-.9.3s-.5,0-.8-.2v-2.1c.4-.3,1-.3,1.5,0v1.1c0,.3,0,.6.1.9ZM161.3,125v2c-.2.2-.5.3-.8.3-.6,0-1.2-.5-1.3-1.1,0,0,0,0,0,0v-.2c0,0,0-.1,0-.2.1-.6.6-1.1,1.3-1.1s.6.1.8.3ZM154.3,146.2c-.2,0-.5,0-.8,0,0-.1,0-.3,0-.6s0-.6,0-.7c.2,0,.2,0,.4,0,.2,0,.5.1.8.2l-.3,1s0,0-.1,0ZM160.1,116.7c.6,0,1.2.3,1.5.8h-.4s0,0,0,0c-.3-.3-.6-.4-1-.4s-1,.3-1.3.8c-.1,0-.3,0-.4.1.2-.7.9-1.3,1.7-1.3ZM97.9,117.4h-.5c0,0-.1-.1-.2-.2,0-.2,0-.3-.2-.5.3.1.6.4.8.6ZM92.1,116.8c0,.2-.1.3-.2.5,0,0-.1.1-.2.2h-.5c.2-.3.5-.5.8-.6ZM26.8,117.4h-.5c0,0-.1-.1-.2-.2,0-.2,0-.3-.2-.5.3.1.6.4.8.6ZM21,116.8c0,.2-.1.3-.2.5,0,0-.1.1-.2.2h-.5c.2-.3.5-.5.8-.6ZM100.8,138.3s0,0,0,0c.5.2,1.1.3,1.6.3s1.2-.1,1.7-.3c-.2.4-.4.8-.4,1.3l-.7,7.1-2-7.6c0-.3-.2-.5-.3-.7ZM176.6,145.8c0,.3,0,.6,0,.9-.5-.2-1-.4-1.5-.4h-.8v-6.4c0-.5-.1-1-.3-1.4h.8c1.8,0,3.2-1.4,3.2-3.2v-.3h3.8c.3,0,.6,0,.9-.1.3,0,.6.1.9.1h3.2c.9,0,1.7-.4,2.3-1,.6.6,1.4,1,2.3,1h3.4c.2,0,.5,0,.7,0,.2,0,.5,0,.7,0h2.8c0,0,.2,0,.3,0h13.6v.3c0,.5.1,1,.3,1.4h-2.5c-1.8,0-3.2,1.4-3.2,3.2v5.8h-1.9c-.5.1-.9.3-1.3.5-.7-.4-1.4-.7-2.3-.8,0-5.3-3.3-8.9-8.1-8.9s-2.7.3-3.8.9c-.1,0-.3-.2-.5-.3-1.1-.5-2.7-.6-3.5-.6-4.6,0-9.6,2.9-9.6,9.3Z"/>
          </g>
          <g>
            <path class="st12" d="M108.3,57.1l-2.2,2.6c-8.2,9.9-7.1,24.5,2.2,33.2l-4.9,5.9c-.2.3-.4.7-.3,1.1,0,.4.2.7.5,1l6.5,5.3c.3.2.6.3.9.3s.8-.2,1.1-.5L178.5,25.4c.4-.4.9-.7,1.4-.8.6,0,1.1.1,1.5.5.4.4.7.9.8,1.4,0,.6-.1,1.1-.5,1.5l-45.5,55.4c-.5.6-.4,1.6.2,2.1l6.2,5.1c.3.2.7.4,1.1.3.4,0,.7-.2,1-.5l45.4-55.2c2.3-2.7,3.3-6.2,3-9.7-.3-3.5-2-6.7-4.8-9-2.7-2.3-6.2-3.3-9.7-3-3.5.3-6.7,2-9,4.8l-11.2,13.6c-8.5-6.2-20.1-6.2-28.5-.2-1.1-.8-2.1-1.3-3.1-1.2-.3,0-.7.1-1,.3-8.7-4.7-19.7-3.4-27,3.6l-26-21.4c-.6-.5-1.6-.4-2.1.2l-5.4,6.6c-.2.3-.4.7-.3,1.1,0,.4.2.7.5,1l42.8,35.2ZM119.8,39.8c.1.6.4,1.3.8,2l-5.1,6.3-7.7-6.4c3.3-3,8.1-3.7,12-1.9ZM146.1,46.9l-6.9-5.6c0-.2,0-.4,0-.5,0-.4-.1-.7-.3-1,4-1.7,8.6-1.5,12.4.8l-5.3,6.4ZM125.9,71.5l-10.6,12.9c-4.6-4.8-5-12.4-.7-17.7l2.2-2.6,9.1,7.5Z"/>
            <circle class="st12" cx="113.7" cy="19.2" r="7.3"/>
            <path class="st12" d="M105.4,134.2c.2,1.4,1.4,2.6,2.9,2.6s2.9-1.3,2.9-2.9,0-.5-.1-.8h19.8c.3,0,.6-.1.9-.3.2.2.5.3.9.3h3.2c.8,0,1.5-.7,1.5-1.5v-14.6c0-.8-.7-1.5-1.5-1.5h-3.2c-.3,0-.6.1-.9.3-.2-.2-.5-.3-.9-.3h-3.2c-.8,0-1.5.7-1.5,1.5v2.1h-5.5c-1.7,0-3.2.5-4.5,1.4v-3.6c0-.8-.7-1.5-1.5-1.5h-2.9c-.8,0-1.5.7-1.5,1.5v2.1h-2.9c-.6,0-1.1.3-1.3.8-.2-.5-.7-.8-1.3-.8h-3c-.8,0-1.5.7-1.5,1.5v3.9h-.3v-3.9c0-.6-.4-1.2-.9-1.4,0-.3.1-.5.1-.8,0-1.6-1.3-2.9-2.9-2.9s-1.3.3-1.8.7c-.5-.4-1.1-.7-1.8-.7-1.6,0-2.9,1.3-2.9,2.9s0,.5.1.8c-.6.2-1.1.7-1.1,1.4v11c0,.8.7,1.5,1.5,1.5h3.4c.3,0,.5,0,.7-.2.2.1.5.2.7.2h1.3c0,.3-.1.5-.1.8,0,1.6,1.3,2.9,2.9,2.9s1.2-.2,1.6-.5c.5.3,1,.5,1.6.5,1.5,0,2.7-1.1,2.9-2.6ZM105.5,133.1c0,.1,0,.3,0,.5,0-.2,0-.3,0-.5h.2ZM94.7,126.4c0,0-.1,0-.2,0,0,0-.1,0-.2,0-.1,0-.3-.2-.3-.4s.2-.5.5-.5.5.2.5.5-.1.4-.3.4Z"/>
            <path class="st12" d="M165.4,135.2c0,.8.7,1.5,1.5,1.5h7.9c.8,0,1.5-.7,1.5-1.5v-2.1h5.6c.3,0,.6-.1.9-.3.2.2.5.3.9.3h3.2c.8,0,1.5-.7,1.5-1.5v-14.6c0-.8-.7-1.5-1.5-1.5h-3.2c-.3,0-.6.1-.9.3-.2-.2-.5-.3-.9-.3h-3.2c-.8,0-1.5.7-1.5,1.5v7.5h-.9v-3.9c0-.8-.7-1.5-1.5-1.5h-7.9c-.5,0-.9.2-1.1.6-.3-.3-.7-.6-1.1-.6h-1.6c0-.2.1-.5.1-.8,0-1.6-1.3-2.9-2.9-2.9s-2.9,1.3-2.9,2.9.2,1.2.6,1.7c-1.6,1-2.7,2.5-3.1,4.4h-2.2v-7.5c0-.8-.7-1.5-1.5-1.5h-3.2c-.8,0-1.5.7-1.5,1.5v5.8c-.1,0-.3,0-.4,0h-5.3c-.8,0-1.5.7-1.5,1.5v2h-.4c-.8,0-1.5.7-1.5,1.5v3.9c0,.8.7,1.5,1.5,1.5h7.2c.4,0,.7-.1.9-.3.3.2.6.4.9.4h15.5c0,0,.2,0,.3,0h.9c.3,0,.6-.1.8-.3,0,0,0,.1,0,.2v2.2ZM170.8,125.5c.3,0,.5.2.5.5s-.2.5-.5.5-.5-.2-.5-.5.2-.5.5-.5ZM160.5,125.5c.3,0,.5.2.5.5s-.2.5-.5.5-.5-.2-.5-.5.2-.5.5-.5Z"/>
            <path class="st12" d="M19.3,133.1h3.4c.3,0,.5,0,.7-.2.2.1.5.2.7.2h3.4c.2,0,.5,0,.7-.2.2.1.4.2.7.2h7.6v2.1c0,.8.7,1.5,1.5,1.5h7.9c.8,0,1.5-.7,1.5-1.5v-2.1h7.4c0,0,.1,0,.2,0h15c0,0,.1,0,.2,0h4.6s0,0,.1,0h.9s0,0,.1,0h5.4c0,0,.2,0,.2,0h.8c.2,0,.4,0,.6-.1.2,0,.4.1.6.1h3.1c.8,0,1.5-.7,1.5-1.5v-14.5c0-.8-.7-1.5-1.5-1.5h-3.1c-.2,0-.4,0-.6.1-.2,0-.4-.1-.6-.1h-3.1c-.8,0-1.5.7-1.5,1.5v2.3c-.2-.2-.5-.3-.9-.3h-7.9c-.5,0-.9.2-1.2.6-.3-.4-.7-.6-1.2-.6h-10.2c-.3,0-.6,0-.8.2-.2-.2-.5-.2-.8-.2h-7.8c-.2,0-.4,0-.6.1-.1,0-.3,0-.4,0h-7.9c-.2,0-.4,0-.6.1-.2-.1-.4-.2-.7-.2h-7.8c-.3,0-.5,0-.7.2,0,0,0,0-.1,0,0-.3.1-.5.1-.8,0-1.6-1.3-2.9-2.9-2.9s-1.3.3-1.8.7c-.5-.4-1.1-.7-1.8-.7-1.6,0-2.9,1.3-2.9,2.9s0,.5.1.8c-.6.2-1.1.7-1.1,1.4v11c0,.8.7,1.5,1.5,1.5ZM23.6,126.4c0,0-.1,0-.2,0,0,0-.1,0-.2,0-.1,0-.3-.2-.3-.4s.2-.5.5-.5.5.2.5.5-.1.4-.3.4ZM73,126.4c-.3,0-.5-.2-.5-.5s.2-.5.5-.5.5.2.5.5-.2.5-.5.5ZM42,125.5c.3,0,.5.2.5.5s-.2.5-.5.5-.5-.2-.5-.5.2-.5.5-.5Z"/>
            <path class="st12" d="M237.4,119.2h-2.8c0-.2.1-.5.1-.8,0-1.2-.8-2.3-1.8-2.7,0-1.6-1.3-2.8-2.9-2.8s-2.9,1.3-2.9,2.8c-1.1.4-1.9,1.5-1.9,2.7s0,.5.1.8h-.9c-.7,0-1.3.5-1.5,1.2-.1-.7-.7-1.3-1.5-1.3h-3.1c-.7,0-1.2.4-1.4,1-.2-.6-.7-1-1.4-1h-5.2l1.8-1.5c.6-.5.7-1.4.2-2.1l-1.9-2.3c-.2-.3-.6-.5-1-.5-.4,0-.8,0-1.1.3l-6.9,5.6-.9.8s0,0,0,0c-.1-.1-.3-.2-.5-.3,0-.3.1-.5.1-.8,0-1.6-1.3-2.9-2.9-2.9s-1.3.3-1.8.7c-.5-.4-1.1-.7-1.8-.7-1.6,0-2.9,1.3-2.9,2.9s0,.5.1.8c-.6.2-1.1.7-1.1,1.4v11c0,.8.7,1.5,1.5,1.5h3.4c.3,0,.5,0,.7-.2.2.1.5.2.7.2h2.9c0,0,.1,0,.2,0h15.3v2.1c0,.8.7,1.5,1.5,1.5h5.4c.8,0,1.5-.7,1.5-1.5v-2.1h14.4c.8,0,1.5-.7,1.5-1.5v-11c0-.8-.7-1.5-1.5-1.5ZM230.1,125.9l-1-1s0,0,0,0l1,1.1ZM235,125.9h0l-1-1s0,0,0,0l1,1.1ZM223,124c0,.2.1.4.2.5h-.2v-.5ZM195.7,126.4c0,0-.1,0-.2,0,0,0-.1,0-.2,0-.2,0-.3-.3-.3-.5,0-.2.2-.4.4-.4,0,0,0,0,0,0,.1,0,.2,0,.3.1,0,0,.2.2.2.3s-.1.4-.3.4Z"/>
            <path class="st12" d="M37.4,148h-2.5v-8.2c0-.8-.7-1.5-1.5-1.5h-3.1c-.8,0-1.5.7-1.5,1.5v6.7l-1.9-7.1c-.2-.6-.8-1.1-1.4-1.1h-3.7c-.7,0-1.2.4-1.4,1.1l-3.4,11.5c-.1.4,0,.9.2,1.3.3.4.7.6,1.2.6h3c.7,0,1.3-.5,1.4-1.1l.4-1.5h.5l.4,1.5c.2.7.8,1.1,1.4,1.1h3c.3,0,.6-.1.9-.3.2.2.5.3.9.3h7.1c.8,0,1.5-.7,1.5-1.5v-1.9c0-.8-.7-1.5-1.5-1.5Z"/>
            <path class="st12" d="M99.4,139.4c-.2-.6-.8-1.1-1.4-1.1h-3.7c-.7,0-1.2.4-1.4,1.1l-.5,1.8v-1.4c.2-.4,0-.8-.2-1.1-.3-.3-.7-.5-1.1-.5h-2.5c-.4,0-.8.2-1.1.5-.3.3-.4.7-.4,1.1v.4s-.2-.8-.2-.8c-.2-.6-.8-1.1-1.4-1.1h-3.7c-.7,0-1.2.4-1.4,1.1l-1.3,4.5c-.3-.4-.7-.6-1.2-.6h-2.1,2.3c.8,0,1.5-.7,1.5-1.5v-1.9c0-.8-.7-1.5-1.5-1.5h-6.8c-.8,0-1.5.7-1.5,1.5v6.7l-1.9-7.1c-.2-.6-.8-1.1-1.4-1.1h-3.7c-.7,0-1.2.4-1.4,1.1l-2.6,8.9,2-8.2c.1-.4,0-.9-.3-1.3-.3-.4-.7-.6-1.2-.6h-3c-.7,0-1.3.5-1.5,1.2v.7c-.1,0-.3-.8-.3-.8-.2-.7-.7-1.1-1.4-1.1h-2.5c-.7,0-1.3.5-1.4,1.1l-.3,1.2-.2-1.1c-.1-.7-.7-1.2-1.5-1.2h-3.2c-.4,0-.9.2-1.2.6-.3.4-.4.8-.3,1.3l.7,2.9c0,0-.2,0-.3,0h-4.6c-.8,0-1.5.7-1.5,1.5v1.6c0,.8.7,1.5,1.5,1.5h4.6c.5,0,.9-.2,1.2-.6l1.1,4.7c.2.7.8,1.1,1.4,1.1h3c.7,0,1.2-.4,1.4-1.1l.4-1.4.3,1.4c.2.7.8,1.1,1.4,1.1h3.2c.7,0,1.3-.5,1.4-1.1h0c0,.2.1.4.3.5.3.4.7.6,1.2.6h3c.7,0,1.3-.5,1.4-1.1l.4-1.5h.5l.4,1.5c.2.7.8,1.1,1.4,1.1h3c.3,0,.6-.1.9-.3.2.2.5.3.9.3h3.1c.8,0,1.5-.7,1.5-1.5v-3.3h2.1l-.8,2.9c-.1.4,0,.9.2,1.3.3.4.7.6,1.2.6h3c.7,0,1.3-.5,1.4-1.1l.4-1.5h.5l.4,1.5c.2.7.8,1.1,1.4,1.1h3c.5,0,.9-.2,1.2-.6.3.4.7.6,1.2.6h3c.7,0,1.3-.5,1.4-1.1l.4-1.5h.5l.4,1.5c.2.7.8,1.1,1.4,1.1h3c.5,0,.9-.2,1.2-.6s.4-.8.3-1.3l-3.1-11.5ZM89.8,150.1l-1.2-4.5c.2,0,.3,0,.5,0h1.5c.2,0,.4,0,.5,0l-1.3,4.5Z"/>
            <path class="st12" d="M175.1,148h-2.5v-8.2c0-.8-.7-1.5-1.5-1.5h-3.1c-.8,0-1.5.7-1.5,1.5v6.7l-1.9-7.1c-.2-.6-.8-1.1-1.4-1.1h-3.7c-.7,0-1.2.4-1.4,1.1l-2.5,8.6c-.3-.2-.7-.2-1-.1-.3,0-.7.1-1.1.1-.9,0-1.8-.3-1.8-2.4s1.4-2.5,1.8-2.5.7,0,.9.1c.4.1.8,0,1.2,0,.4-.2.6-.5.7-.9l.5-1.9c.2-.7-.2-1.4-.8-1.7-.6-.3-1.6-.4-2.8-.4-2.7,0-5.4,1.1-6.8,3.5v-2c0-.8-.7-1.5-1.5-1.5h-3.1c-.8,0-1.5.7-1.5,1.5v1.5c-.4-.7-1-1.3-1.7-1.7-1.3-.9-2.9-1.3-5.2-1.3s-2.5,0-3.4.2c-.3,0-.6.2-.9.5-.3-.4-.7-.7-1.2-.7h-6.8c-.8,0-1.5.7-1.5,1.5v2.8l-.2-3c0-.8-.7-1.4-1.5-1.4h-3.2c-.7,0-1.2.4-1.4,1.1l-.9,3.1-.9-3.1c-.2-.6-.8-1-1.4-1h-3.2c-.8,0-1.4.6-1.5,1.3l-1.1,11.5c0,.4,0,.8.4,1.1s.7.5,1.1.5h2.6c.7,0,1.3-.5,1.4-1.2.2.6.8,1,1.4,1h2.2c.6,0,1.2-.4,1.4-1h0c.1.7.7,1.2,1.4,1.2h2.7c.4,0,.8-.2,1.1-.5,0,0,0,0,0,0,.3.3.7.5,1.1.5h7.1c.4,0,.8-.2,1.1-.5.2.2.5.4.9.4.5,0,1.6.1,2.7.1,2.5,0,4.3-.5,5.6-1.4.8-.5,1.4-1.2,1.8-2v1.8c0,.8.7,1.5,1.5,1.5h3.1c.8,0,1.5-.7,1.5-1.5v-1.7c1.2,2.1,3.5,3.3,6.4,3.3s1.9-.1,2.6-.3c.2.1.4.2.7.2h3c.7,0,1.3-.5,1.4-1.1l.4-1.5h.5l.4,1.5c.2.7.8,1.1,1.4,1.1h3c.3,0,.6-.1.9-.3.2.2.5.3.9.3h7.1c.8,0,1.5-.7,1.5-1.5v-1.9c0-.8-.7-1.5-1.5-1.5ZM129.1,142.9v.5c-.1-.1-.2-.2-.3-.3.1,0,.2-.1.3-.2ZM125.9,147.9v-.2h2.1c.4,0,.8-.2,1.1-.5v.8c-.2,0-.4-.1-.6-.1h-2.6ZM135.1,147.5v-4c.2.3.4.9.4,1.9s-.1,1.7-.4,2.1Z"/>
            <path class="st12" d="M235.8,139.6c-1.3-.9-2.9-1.3-5.2-1.3s-2.5,0-3.4.2c-.2,0-.3,0-.4.2-.3-.2-.6-.3-.9-.3h-8.6c-.8,0-1.5.7-1.5,1.5v2.1c0,.8.7,1.5,1.5,1.5h1.3v4.8c-.2-.1-.5-.2-.7-.2h-2.5v-8.2c0-.8-.7-1.5-1.5-1.5h-3.1c-.8,0-1.5.7-1.5,1.5v7.5c-.2,0-.3,0-.5,0l-3.1.2c-.7,0-1.2.5-1.4,1.2-.5-1-1.6-1.6-2.9-1.6s-.9,0-1.3.3c0-.6.1-1.2.1-1.9,0-4.4-2.4-7.2-6.3-7.2s-3.1.5-4.2,1.5c-.1-.4-.4-.8-.8-1-.6-.3-1.6-.4-2.7-.4-3.9,0-7.8,2.3-7.8,7.5s2.9,7.2,7.4,7.2,2.2-.1,2.8-.4c.5-.2.8-.6,1-1.1,1.1.9,2.5,1.5,4.2,1.5s3.2-.3,4.7-1.8c.5,1.1,1.6,1.8,3,1.8s1.1-.1,1.5-.3c0,0,0,.2-.1.2-.2.5-.2,1,.1,1.5.3.4.7.6,1.2.6s0,0,.1,0l2-.2c.4,0,.8-.2,1-.5.8-.9,1.5-2,2-3h0c0,.9.7,1.6,1.5,1.6h7.1c.4,0,.8-.2,1.1-.5.3.3.7.5,1.1.5h3.1c.8,0,1.5-.7,1.5-1.5v-8h1.3c0,0,0,0,.1,0v8c0,.8.6,1.4,1.3,1.5.5,0,1.6.1,2.7.1,2.5,0,4.3-.5,5.6-1.4,1.8-1.2,2.8-3.4,2.8-6.1s-.9-4.7-2.7-5.9ZM187.5,147.9c-.3,0-.7.1-1.1.1-.9,0-1.8-.3-1.8-2.4s1.4-2.5,1.8-2.5.7,0,.9.1c0,0,.2,0,.2,0-.2.7-.3,1.4-.3,2.2s0,1.6.2,2.3c0,0,0,0,0,0ZM193.8,143.2c.1.3.3.9.3,2.3s-.2,2.2-.4,2.5c-.1-.2-.4-.9-.4-2.4s.2-2.1.4-2.4ZM232,147.5v-4c.2.3.4.9.4,1.9s-.1,1.7-.4,2.1Z"/>
          </g>
          <g>
            <path class="st8" d="M107,57.2l-1.6,1.9c-8.3,10-7.5,24.7,1.6,33.9l-4.3,5.3c-.4.5-.6,1.1-.5,1.7,0,.6.4,1.2.9,1.6l6.5,5.3c.4.3,1,.5,1.5.5s1.4-.3,1.8-.9L179.2,26c.2-.2.5-.4.8-.4,0,0,0,0,.1,0,.3,0,.5,0,.8.3.2.2.4.5.4.8,0,.3,0,.6-.3.9l-45.5,55.4c-.8,1-.7,2.5.3,3.3l6.2,5.1c.4.3,1,.5,1.5.5s.2,0,.2,0c.6,0,1.2-.4,1.6-.9l45.4-55.2c2.4-2.9,3.5-6.6,3.2-10.4-.4-3.8-2.2-7.2-5.1-9.6-2.6-2.1-5.7-3.2-9-3.2-.5,0-.9,0-1.4,0-3.8.4-7.2,2.2-9.6,5.1l-10.6,12.9c-4.2-2.8-9.1-4.3-14.2-4.3-5.1,0-10,1.5-14.2,4.3-1.1-.7-2-1-2.9-1s-.2,0-.3,0c-.3,0-.6,0-.8.2-3.3-1.7-6.9-2.6-10.6-2.6,3.7-.8,6.5-4.1,6.5-8s-3.7-8.2-8.2-8.2-8.2,3.7-8.2,8.2,3.1,7.5,7.1,8.1c-5.1.5-9.9,2.5-13.8,5.9l-25.4-20.9c-.4-.3-1-.5-1.5-.5s-1.4.3-1.8.9l-5.4,6.6c-.4.5-.6,1.1-.5,1.7,0,.6.4,1.2.9,1.6l42.1,34.6ZM115.3,67.3l1.6-2,7.7,6.3-9.3,11.4c-3.7-4.5-3.8-11.1,0-15.7ZM115.4,46.8l-6.2-5.1c1.7-1.3,3.9-2,6.1-2,1.3,0,2.6.2,3.8.7.1.4.3.8.5,1.2l-4.2,5.1ZM140.1,40.3c1.4-.5,2.9-.7,4.3-.7s3.8.4,5.6,1.3l-4,4.9-5.8-4.8c0,0,0-.1,0-.2,0-.1,0-.3,0-.4Z"/>
            <path class="st8" d="M223.9,135.2v-1.2h13.5c1.3,0,2.4-1.1,2.4-2.4v-11c0-1.3-1.1-2.4-2.4-2.4h-1.8c0-1.3-.8-2.5-1.9-3.1-.3-1.8-1.9-3.2-3.7-3.2s-3.4,1.4-3.7,3.1c-1.1.6-1.9,1.8-1.9,3.2-.5,0-.9.2-1.3.5-.4-.3-.9-.5-1.5-.5h-3.1c-.5,0-1,.2-1.4.5-.4-.3-.9-.5-1.4-.5h-2.7c.9-.8,1-2.2.2-3.2l-1.9-2.3c-.4-.5-1-.8-1.6-.9,0,0-.2,0-.2,0-.5,0-1.1.2-1.5.5l-6.8,5.5c-.2-1.9-1.8-3.3-3.8-3.3s-1.3.2-1.8.5c-.6-.3-1.2-.5-1.8-.5-2.1,0-3.8,1.7-3.8,3.8s0,.2,0,.3c-.4.3-.7.8-.9,1.3v-2.9c0-1.3-1.1-2.4-2.4-2.4h-3.2c-.3,0-.6,0-.9.2-.3-.1-.6-.2-.9-.2h-3.2c-1.3,0-2.4,1.1-2.4,2.4v1.8c-.4-.3-.9-.6-1.5-.6h-7.9c-.4,0-.8.1-1.1.3-.3-.2-.7-.3-1.1-.3h-.6c0-2-1.7-3.7-3.8-3.7s-3.8,1.7-3.8,3.8.1,1,.3,1.5c-1.3,1-2.2,2.3-2.6,3.8h-.6v-6.6c0-1.3-1.1-2.4-2.4-2.4h-3.2c-1.3,0-2.4,1.1-2.4,2.4v4.8h-4.9c-1.3,0-2.4,1.1-2.4,2.4v1.1c0,0,0,0-.1,0v-8.4c0-1.3-1.1-2.4-2.4-2.4h-3.2c-.3,0-.6,0-.9.2-.3-.1-.6-.2-.9-.2h-3.2c-1.3,0-2.4,1.1-2.4,2.4v1.2h-4.6c-1.3,0-2.5.3-3.6.8v-2c0-1.3-1.1-2.4-2.4-2.4h-2.9c-1.3,0-2.4,1.1-2.4,2.4v1.2h-2c-.5,0-.9.1-1.3.4-.4-.3-.8-.4-1.3-.4h-3c-.6,0-1.2.2-1.6.6,0,0,0,0,0,0,0-.1,0-.3,0-.4,0-2.1-1.7-3.8-3.8-3.8s-1.3.2-1.8.5c-.6-.3-1.2-.5-1.8-.5-1.7,0-3.2,1.2-3.6,2.8v-.3c0-1.3-1.1-2.4-2.4-2.4h-3.1c-.2,0-.4,0-.6,0-.2,0-.4,0-.6,0h-3.1c-1.3,0-2.4,1.1-2.4,2.4v1.2h-7.9c-.4,0-.8.1-1.2.3-.4-.2-.8-.3-1.2-.3h-10.2c-.3,0-.5,0-.8.1-.3,0-.5-.1-.8-.1h-7.8c-.2,0-.4,0-.6,0-.1,0-.3,0-.4,0h-7.9c-.2,0-.4,0-.5,0-.2,0-.5-.1-.7-.1h-7.6c0-2-1.8-3.6-3.8-3.6s-1.3.2-1.8.5c-.6-.3-1.2-.5-1.8-.5-2.1,0-3.8,1.7-3.8,3.8s0,.2,0,.3c-.6.4-1,1.1-1,1.9v11c0,1.3,1.1,2.4,2.4,2.4h3.4c.2,0,.5,0,.7-.1.2,0,.5.1.7.1h3.4c.2,0,.4,0,.6,0,.2,0,.5.1.7.1h6.7v1.2c0,1.3,1.1,2.4,2.4,2.4h5.3c-.4.1-.8.4-1.1.8-.5.6-.6,1.3-.5,2l.4,1.8h-3.8c-1.3,0-2.4,1.1-2.4,2.4v1.6c0,.3,0,.6.2.9h-.6v-7.3c0-1.3-1.1-2.4-2.4-2.4h-3.1c-1.3,0-2.3,1-2.4,2.2v-.5c-.4-1-1.3-1.8-2.4-1.8h-3.7c-1,0-2,.7-2.3,1.7l-3.4,11.5c-.2.7,0,1.5.4,2.1.4.6,1.2,1,1.9,1h3c.9,0,1.7-.5,2.1-1.3.4.8,1.2,1.3,2.1,1.3h3c.3,0,.6,0,.9-.2.3.1.6.2.9.2h7.1c1.3,0,2.4-1.1,2.4-2.4v-1.9c0-.3,0-.6-.2-.9h3.6c.2,0,.4,0,.6,0l.8,3.5c.3,1.1,1.2,1.8,2.3,1.8h3c.7,0,1.4-.3,1.8-.8.4.5,1.1.8,1.8.8h3.2c.5,0,1-.2,1.4-.5.4.3.9.5,1.4.5h3c.9,0,1.7-.5,2.1-1.3.4.8,1.2,1.3,2.1,1.3h3c.3,0,.6,0,.9-.2.3.1.6.2.9.2h3.1c.9,0,1.6-.5,2-1.2,0,0,0,.2.2.2.4.6,1.2,1,1.9,1h3c.9,0,1.7-.5,2.1-1.3.4.8,1.2,1.3,2.1,1.3h3c.4,0,.8-.1,1.2-.3.4.2.7.3,1.2.3h3c.9,0,1.7-.5,2.1-1.3.4.8,1.2,1.3,2.1,1.3h3c.7,0,1.4-.3,1.9-.9.4-.6.6-1.3.4-2l-3.1-11.5c-.2-.7-.7-1.3-1.4-1.5.1,0,.2,0,.3,0,.6,0,1.1-.1,1.6-.4.5.2,1.1.4,1.6.4,1.1,0,2.2-.5,2.9-1.3.4.5,1,.9,1.6,1.1-1.2,0-2.2.9-2.3,2.1l-1.1,11.5c0,.7.2,1.3.6,1.8.4.5,1.1.8,1.8.8h2.6c.6,0,1.1-.2,1.5-.6.4.2.8.4,1.3.4h2.2c.5,0,.9-.1,1.3-.4.4.4,1,.6,1.5.6h2.7c.4,0,.8,0,1.1-.3.3.2.7.3,1.1.3h7.1c.4,0,.8,0,1.1-.3.2.1.5.2.8.2.5,0,1.6.1,2.8.1,2.7,0,4.7-.5,6.1-1.5.2-.1.3-.2.5-.4.3,1,1.2,1.8,2.3,1.8h3.1c1.1,0,2-.7,2.3-1.7,1.4,1.2,3.4,1.8,5.6,1.8s1.8,0,2.5-.2c.2,0,.5.1.8.1h3c.9,0,1.7-.5,2.1-1.3.4.8,1.2,1.3,2.1,1.3h3c.3,0,.6,0,.9-.2.3.1.6.2.9.2h7.1c1.3,0,2.4-1.1,2.4-2.4v-1.9c0-1.3-1.1-2.4-2.4-2.4h-1.7v-7.3c0-1.1-.7-2-1.7-2.2h3c1.3,0,2.4-1.1,2.4-2.4v-1.2h4.7c.3,0,.6,0,.9-.2.3.1.6.2.9.2h3.2c1.2,0,2.2-.9,2.3-2.1.1,1.2,1.1,2.1,2.3,2.1h3.4c.2,0,.5,0,.7-.1.2,0,.5.1.7.1h2.9c0,0,.2,0,.2,0h14.4v1.2c0,1.3,1.1,2.4,2.4,2.4h.4c-.4.1-.7.3-1,.6-.4-.5-1-.7-1.7-.7h-3.1c-1.3,0-2.4,1.1-2.4,2.4v6.6l-2.8.2c-.5,0-1,.2-1.4.6-.7-.6-1.7-1-2.8-1s-.2,0-.3,0c0-.3,0-.5,0-.8,0-4.9-2.8-8.1-7.2-8.1s-2.8.4-3.9,1.1c-.2-.2-.4-.4-.7-.5-.7-.3-1.8-.5-3.1-.5-4.2,0-8.7,2.6-8.7,8.4s3.3,8.1,8.3,8.1,2.4-.1,3.1-.4c.4-.1.7-.3.9-.6,1.1.7,2.4,1,3.9,1s2.9-.2,4.5-1.4c.8.9,1.9,1.4,3.2,1.4s.3,0,.4,0c0,.4.2.7.4,1,.4.6,1.2,1,1.9,1s.1,0,.2,0l2-.2c.6,0,1.2-.4,1.6-.8.4-.5.8-1.1,1.2-1.7.4.4,1,.6,1.5.6h7.1c.4,0,.8,0,1.1-.3.3.2.7.3,1.1.3h3.1c1,0,1.9-.6,2.2-1.5.3.8,1.1,1.4,2,1.5.5,0,1.6.1,2.8.1,2.7,0,4.7-.5,6.1-1.5,2.1-1.4,3.2-3.8,3.2-6.9s-1-5.3-3.1-6.6c-1.4-1-3.2-1.4-5.7-1.4s-2.6,0-3.5.3c0,0-.1,0-.2,0-.3-.2-.7-.2-1-.2h-3.7c1-.3,1.7-1.2,1.7-2.2ZM217.3,144.3h.4v2.8h-1.5v-3.1c.3.2.7.3,1.1.3ZM166.9,137.6h.5c-.9.3-1.6,1.1-1.7,2.1v-.5c-.4-1-1.3-1.8-2.4-1.8h-3.7c-.9,0-1.7.5-2.1,1.3-.2-.4-.6-.7-1-.9-.7-.3-1.8-.5-3.1-.5-2.3,0-4.4.7-6,2-.2-1.1-1.2-1.9-2.3-1.9h-3.1c-1.1,0-2,.7-2.3,1.7-.1,0-.3-.2-.4-.3-1.4-1-3.2-1.4-5.7-1.4s-2.6,0-3.5.3c-.2,0-.4.1-.6.2-.4-.3-.8-.4-1.3-.4h-6.8c-.6,0-1.2.2-1.6.6-.4-.4-1-.6-1.6-.6h-3.2c-1,0-2,.7-2.3,1.7v.2c0,0-.1-.2-.1-.2-.3-1-1.2-1.7-2.3-1.7h-.6c1.4-.5,2.4-1.9,2.5-3.4h18.8c.3,0,.6,0,.9-.2.3.1.6.2.9.2h3.2c.6,0,1.1-.2,1.5-.6.4.3.9.6,1.5.6h7.2c.3,0,.6,0,.9-.2.3.1.6.2,1,.2h15.5c.1,0,.2,0,.4,0h.8v1.2c0,1.3,1.1,2.4,2.4,2.4ZM153.6,144.1c.4,0,.5,0,.7.1.2,0,.5.1.8.1s.6,0,.9-.2l-.8,2.8s0,0,0,0c-.2,0-.4,0-.5,0-.2,0-.6.1-.9.1-.5,0-.9,0-.9-1.5s.6-1.6.9-1.6ZM89.9,146.5v.2c0,0-.1-.2-.1-.2h.1ZM94.4,137.5c-.6,0-1.1.2-1.6.6-.4-.5-1.1-.7-1.7-.7h-2.5c-.6,0-1.2.2-1.6.6-.4-.3-.9-.5-1.5-.5h-3.7c-.7,0-1.4.4-1.9.9-.4-.6-1.1-.9-1.9-.9h-6.8c-1.3,0-2.3,1-2.4,2.2v-.5c-.4-1-1.3-1.8-2.4-1.8h-3.7c-.7,0-1.3.3-1.8.8-.4-.5-1.1-.8-1.8-.8h-3c-.6,0-1.2.2-1.6.6-.4-.4-1-.6-1.6-.6h-2.5c-.7,0-1.3.3-1.7.7-.4-.4-1-.7-1.7-.7h-.7c1-.3,1.7-1.2,1.7-2.2v-1.2h6.5c0,0,.2,0,.3,0h14.9c0,0,.2,0,.2,0h4.5s0,0,.1,0h.9s0,0,.1,0h5.4c0,0,.2,0,.3,0h.8c.2,0,.4,0,.6,0,.2,0,.4,0,.6,0h3.1c.7,0,1.4-.4,1.8-.9.4.5,1.1.9,1.8.9h3.4c.2,0,.5,0,.7-.1.2,0,.5.1.7.1h.3c0,1.6,1.1,2.9,2.5,3.4h-3.6ZM186.5,147.1s0,0-.1,0c-.5,0-.9,0-.9-1.5s.6-1.6.9-1.6,0,0,.1,0c0,.5-.1,1-.1,1.5s0,1,0,1.5Z"/>
          </g>
        </g>
        <g>
          <g>
            <path class="st7" d="M187.4,17.6h0c-5-4.1-12.5-3.4-16.6,1.6l-12.1,14.7h0c-8.9-7.4-21.6-6.9-29.8.6-.8.7-1.6,1.6-2.3,2.5l-2.9,3.5-7.4,9,6.5,5.3,5,4.1,5.1-6.2-5-4.1,2.3-2.8,2.5-3.1c.9-1.1,1.9-2,2.9-2.7,5.3-3.8,12.7-3.9,18.1.1l-38.1,46.4s0,0,0,0h0s-5.1,6.2-5.1,6.2h0s0,0,0,0l-5.8,7,6.5,5.3L177.4,24.5c1.3-1.5,3.5-1.7,5-.5h0c1.5,1.3,1.7,3.5.5,5l-45.5,55.4,6.2,5.1,45.4-55.2c4.1-5,3.4-12.5-1.6-16.6Z"/>
            <g class="st9">
              <path class="st14" d="M187.4,17.6h0c-5-4.1-12.5-3.4-16.6,1.6l-12.1,14.7h0c-8.9-7.4-21.6-6.9-29.8.6-.8.7-1.6,1.6-2.3,2.5l-2.9,3.5-7.4,9,6.5,5.3,5,4.1,5.1-6.2-5-4.1,2.3-2.8,2.5-3.1c.9-1.1,1.9-2,2.9-2.7,5.3-3.8,12.7-3.9,18.1.1l-38.1,46.4s0,0,0,0h0s-5.1,6.2-5.1,6.2h0s0,0,0,0l-5.8,7,6.5,5.3L177.4,24.5c1.3-1.5,3.5-1.7,5-.5h0c1.5,1.3,1.7,3.5.5,5l-45.5,55.4,6.2,5.1,45.4-55.2c4.1-5,3.4-12.5-1.6-16.6Z"/>
              <g class="st15">
                <g>
                  <g class="st6">
                    <path class="st5" d="M137.5,41.9c-1.3,1.6-4.9.7-8-1.9-3.1-2.6-4.6-6-3.3-7.5,1.3-1.6,3.8,1,6.9,3.6,3.1,2.6,5.8,4.2,4.5,5.8Z"/>
                    <ellipse class="st4" cx="130.9" cy="38" rx="1.6" ry="7.4" transform="translate(18.2 114.7) rotate(-50.4)"/>
                  </g>
                  <g class="st6">
                    <path class="st3" d="M132.9,47c-1.3,1.6-4.7.1-7.8-2.5-3.1-2.6-4.8-5.3-3.5-6.9,1.3-1.6,4.9-.7,8,1.9,3.1,2.6,4.6,6,3.3,7.5Z"/>
                    <path class="st2" d="M133.4,46c-.6.7-5.1,1.1-8.3-1.5-3.1-2.6-3.7-7.2-3.1-7.9.6-.7,3.6.9,6.7,3.5,3.1,2.6,5.2,5.3,4.7,5.9Z"/>
                  </g>
                </g>
                <g class="st6">
                  <path class="st1" d="M135.8,51c1.6,1.3,1.9,6.2-.7,9.3-2.6,3.1-7.1,3.3-8.7,2s-2.8-6.6-.2-9.8c2.6-3.1,8-2.9,9.6-1.6Z"/>
                  <ellipse class="st0" cx="131.3" cy="56.9" rx="7.4" ry="1.6" transform="translate(3.8 121.8) rotate(-50.4)"/>
                </g>
              </g>
            </g>
            <path class="st10" d="M135.5,40l-6.7-5.5h0c-8.9-7.4-22-6.5-29.8,1.8l-27-22.2-5.4,6.6,61.4,50.5,5.4-6.6,12.9-15.7-10.8-8.9ZM132.8,52.7l-5.1,6.2-.5.6-21.5-17.7c4.4-5.3,12.3-6,17.6-1.6l.4.3,6.5,5.3,5,4.1-2.3,2.8Z"/>
            <path class="st10" d="M113.5,65.8l2.6-3.1-6.2-5.1-2.6,3.1c-8,9.7-6.6,24.1,3.1,32.1l5.1-6.2c-6.3-5.2-7.2-14.5-2-20.8Z"/>
            <circle class="st10" cx="113.7" cy="19.2" r="5.8"/>
          </g>
          <g>
            <path class="st7" d="M114.8,123.4v-6.3h-2.9v8.3h2.3c0-.8.3-1.4.6-1.9Z"/>
            <path class="st7" d="M127.7,126h-1.4v-5.3h-5.5c-1.6,0-3,.5-4.1,1.6-1.1,1-1.7,2.3-1.7,3.8h-4.3v-5.3h-3v5.3h-2.6v-5.3h-3v5.3h-3.3v-5.4h-8.3v11h3.4v-3.9c-.7-.3-1.2-1-1.2-1.8s.9-1.9,1.9-1.9,1.9.9,1.9,1.9-.5,1.5-1.2,1.8v3.9h3.4s5.5,0,5.5,0h5.6s15.7,0,15.7,0h0s5.4,0,5.4,0v-14.6h-3.2v8.9ZM117.7,126c0-.7.3-1.3.8-1.7.6-.5,1.2-.7,2-.7s1.4.2,2,.7c.6.5.8,1.1.8,1.7h-5.7Z"/>
            <rect class="st7" x="132.6" y="117.1" width="3.2" height="14.6"/>
            <circle class="st7" cx="99.3" cy="133.9" r="1.4"/>
            <circle class="st7" cx="102.6" cy="133.9" r="1.4"/>
            <circle class="st7" cx="108.3" cy="133.9" r="1.4"/>
            <path class="st7" d="M96.4,119.9c.8,0,1.4-.6,1.4-1.4s-.6-1.4-1.4-1.4-1.4.6-1.4,1.4.6,1.4,1.4,1.4Z"/>
            <circle class="st7" cx="92.7" cy="118.4" r="1.4"/>
            <path class="st7" d="M140.6,127.7h-1.9v3.9h7.2v-3.9h-2.5c-.7,0-1.1-.3-1.1-1s.1-.5.3-.7c.2-.2.5-.3.8-.3s.8.2,1,.7h1.4v-2.2h-5.3v3.4Z"/>
            <path class="st7" d="M178.7,126h-3.9v-5.3h-7.9v11h4.8c-.1.8-.8,1.4-1.6,1.4h-3.2v2.2h7.9v-3.6h0s7,0,7,0v-14.6h-3.2v8.9ZM170.8,127.9c-1.1,0-1.9-.9-1.9-1.9s.9-1.9,1.9-1.9,1.9.9,1.9,1.9-.9,1.9-1.9,1.9Z"/>
            <rect class="st7" x="183.5" y="117.1" width="3.2" height="14.6"/>
            <circle class="st7" cx="160.1" cy="118.4" r="1.4"/>
            <path class="st7" d="M156,125.9v.2h-5v-9h-3.2v9h0v5.6h15.5,0s1.2,0,1.2,0v-11h-3.3c-2.9,0-5.2,2.3-5.2,5.2ZM162.5,126c0,1.1-.9,1.9-1.9,1.9s-1.9-.9-1.9-1.9.9-1.9,1.9-1.9,1.9.9,1.9,1.9Z"/>
            <rect class="st7" x="83.6" y="117.1" width="3.1" height="14.5"/>
            <path class="st7" d="M79.3,126.1h-2.3v-5.4h-7.9v5.4h-2.4v-5.4h-10.2v3.1h4.7c1.4,0,2.5,1,2.7,2.4h-9v-5.4h-7.8v3.6h2.1c.4-.7.9-1.1,1.5-1.1s.9.1,1.2.4c.3.3.5.6.5,1,0,1-.5,1.5-1.5,1.5h-3.8v5.6h7.9s15.2,0,15.2,0h0s4.9,0,4.9,0c0,0,0,0,0,0h1s5.4,0,5.4,0h0s1.1,0,1.1,0v-14.5h-3.1v8.9ZM73,127.9c-1.1,0-1.9-.9-1.9-1.9s.9-1.9,1.9-1.9,1.9.9,1.9,1.9-.9,1.9-1.9,1.9Z"/>
            <path class="st7" d="M29,124.2h2.1c.4-.7.9-1.1,1.5-1.1s.9.1,1.2.4c.3.3.5.6.5,1,0,1-.5,1.5-1.5,1.5h-3.7v5.6h7.8v-11.1h-7.8v3.6Z"/>
            <circle class="st7" cx="25.4" cy="118.4" r="1.4"/>
            <circle class="st7" cx="21.7" cy="118.4" r="1.4"/>
            <path class="st7" d="M19.3,131.6h3.4v-3.9c-.7-.3-1.2-1-1.2-1.8s.9-1.9,1.9-1.9,1.9.9,1.9,1.9-.5,1.5-1.2,1.8v3.9h3.4v-11h-8.3v11Z"/>
            <path class="st7" d="M38.1,131.7h4.8c-.1.8-.8,1.4-1.6,1.4h-3.2v2.2h7.9v-14.5h-7.9v11ZM42,124c1.1,0,1.9.9,1.9,1.9s-.9,1.9-1.9,1.9-1.9-.9-1.9-1.9.9-1.9,1.9-1.9Z"/>
            <path class="st7" d="M211.4,116.6l-1.9-2.3-6.9,5.6-.9.8v3h.9s0,0,0,0h10.3v2.4h-8.9s-4.3,0-4.3,0v-5.4h-8.3v11h3.4v-3.9c-.8-.3-1.3-1.1-1.2-2.1.1-.9.8-1.6,1.7-1.7,1.2-.1,2.2.8,2.2,1.9s-.5,1.5-1.2,1.8v3.9h3.1s16.4,0,16.4,0v-11h-9.4l5-4.1Z"/>
            <path class="st7" d="M234.4,120.7v3c.7.2,1.1.6,1.1,1.2s-.1.7-.4,1c-.3.3-.7.4-1.1.4s-.8-.1-1.1-.4c-.3-.3-.4-.6-.4-1v-4.2h-3v3c.7.2,1.1.6,1.1,1.2s-.1.7-.4,1c-.3.3-.7.4-1.1.4s-.8-.1-1.1-.4c-.3-.3-.4-.6-.4-1v-4.2h-3v3c.7.2,1.1.6,1.1,1.2s-.5,1.1-1.5,1.1h-2.5v-5.4h-3.1v10.8c0,.9-.7,1.6-1.6,1.6h-.7v2.2h5.4v-3.6h15.8v-11h-3Z"/>
            <circle class="st7" cx="231.8" cy="118.4" r="1.4"/>
            <circle class="st7" cx="230" cy="115.8" r="1.4"/>
            <circle class="st7" cx="228.1" cy="118.4" r="1.4"/>
            <circle class="st7" cx="197.4" cy="118.4" r="1.4"/>
            <circle class="st7" cx="193.7" cy="118.4" r="1.4" transform="translate(-16.5 32.6) rotate(-9.2)"/>
          </g>
          <g>
            <path class="st10" d="M22.1,148.7l-.7,2.6h-3l3.4-11.5h3.7l3.1,11.5h-3l-.7-2.6h-2.8ZM24.6,147l-.5-2.4c-.2-.7-.4-1.9-.5-2.6h0c-.2.8-.4,2-.6,2.6l-.6,2.4h2.2Z"/>
            <path class="st10" d="M30.3,139.8h3.1v9.6h4v1.9h-7.1v-11.5Z"/>
            <path class="st10" d="M43.1,144.5v1.6h-4.6v-1.6h4.6Z"/>
            <path class="st10" d="M46.8,151.4l-2.7-11.5h3.2l.8,4.6c.2,1.3.4,2.6.5,4.1h0c.2-1.4.6-2.7.9-4.1l1.1-4.6h2.5l1,4.6c.3,1.3.6,2.6.8,4.1h0c.2-1.5.4-2.7.6-4.1l.8-4.6h3l-2.8,11.5h-3.2l-.9-3.8c-.3-1.1-.5-2.4-.7-3.8h0c-.3,1.4-.5,2.7-.9,3.8l-1.1,3.8h-3Z"/>
            <path class="st10" d="M63.1,148.7l-.7,2.6h-3l3.4-11.5h3.7l3.1,11.5h-3l-.7-2.6h-2.8ZM65.7,147l-.5-2.4c-.2-.7-.4-1.9-.5-2.6h0c-.2.8-.4,2-.6,2.6l-.6,2.4h2.2Z"/>
            <path class="st10" d="M71.3,139.8h6.8v1.9h-3.8v3h3.5v1.9h-3.5v4.8h-3.1v-11.5Z"/>
            <path class="st10" d="M82.1,148.7l-.7,2.6h-3l3.4-11.5h3.7l3.1,11.5h-3l-.7-2.6h-2.8ZM84.7,147l-.5-2.4c-.2-.7-.4-1.9-.5-2.6h0c-.2.8-.4,2-.6,2.6l-.6,2.4h2.2Z"/>
            <path class="st10" d="M91.1,139.7l-.5,4.4h-1.5l-.5-4.4h2.5Z"/>
            <path class="st10" d="M94.6,148.7l-.7,2.6h-3l3.4-11.5h3.7l3.1,11.5h-3l-.7-2.6h-2.8ZM97.2,147l-.5-2.4c-.2-.7-.4-1.9-.5-2.6h0c-.2.8-.4,2-.6,2.6l-.6,2.4h2.2Z"/>
            <path class="st10" d="M116.1,147.3c0-1.1-.2-2.6-.1-3.8h0c-.3,1.2-.7,2.7-1,3.6l-1.4,4.1h-2.2l-1.3-4.1c-.3-.9-.7-2.4-1-3.6h0c0,1.3-.2,2.7-.2,3.9l-.3,4h-2.6l1.1-11.5h3.2l1.3,4.2c.4,1.5.8,2.7,1.1,4h0c.2-1.3.6-2.6,1-4l1.2-4.2h3.2l1,11.5h-2.7l-.3-4Z"/>
            <path class="st10" d="M128,146.3h-3.6v3.1h4v1.9h-7.1v-11.5h6.8v1.9h-3.8v2.7h3.6v1.9Z"/>
            <path class="st10" d="M130.5,140c.8-.1,1.9-.2,3.1-.2,2,0,3.4.3,4.4,1,1.3.9,2,2.4,2,4.7s-.8,4-2.2,4.9c-1.1.7-2.6,1.1-4.8,1.1s-1.9,0-2.5-.1v-11.3ZM133.6,149.6c.2,0,.4,0,.5,0,1.5,0,2.8-1.1,2.8-4.2s-.8-3.8-2.7-3.8-.4,0-.6,0v8Z"/>
            <path class="st10" d="M145.1,139.8v11.5h-3.1v-11.5h3.1Z"/>
            <path class="st10" d="M155.3,151.2c-.4.2-1.3.3-2.4.3-4,0-5.9-2.4-5.9-5.7s3.3-6,6.3-6,1.8.2,2.1.3l-.5,1.9c-.4-.1-.8-.2-1.4-.2-1.7,0-3.3,1.1-3.3,4s1.4,3.8,3.3,3.8,1.1,0,1.5-.2l.3,1.9Z"/>
            <path class="st10" d="M159.9,148.7l-.7,2.6h-3l3.4-11.5h3.7l3.1,11.5h-3l-.7-2.6h-2.8ZM162.4,147l-.5-2.4c-.2-.7-.4-1.9-.5-2.6h0c-.2.8-.4,2-.6,2.6l-.6,2.4h2.2Z"/>
            <path class="st10" d="M168.1,139.8h3.1v9.6h4v1.9h-7.1v-11.5Z"/>
            <path class="st10" d="M188.1,151.2c-.4.2-1.3.3-2.4.3-4,0-5.9-2.4-5.9-5.7s3.3-6,6.3-6,1.8.2,2.1.3l-.5,1.9c-.4-.1-.8-.2-1.4-.2-1.7,0-3.3,1.1-3.3,4s1.4,3.8,3.3,3.8,1.1,0,1.5-.2l.3,1.9Z"/>
            <path class="st10" d="M198.8,145.4c0,4.4-2.1,6.1-5.1,6.1s-5-2.8-5-5.9,1.7-5.9,5.2-5.9,4.9,3.1,4.9,5.7ZM192,145.6c0,2.6.7,4,1.9,4s1.8-1.7,1.8-4.1-.4-3.9-1.8-3.9-1.9,1.5-1.9,4Z"/>
            <path class="st10" d="M199.7,150c0-.9.8-1.5,1.8-1.5s1.8.6,1.8,1.5-.7,1.5-1.8,1.5-1.8-.6-1.8-1.5Z"/>
            <path class="st10" d="M204.2,153.5c.7-1.4,1.3-3.2,1.6-4.6l3.1-.2c-.7,1.5-1.7,3.3-2.7,4.6l-2,.2Z"/>
            <path class="st10" d="M210.8,139.8h3.1v9.6h4v1.9h-7.1v-11.5Z"/>
            <path class="st10" d="M220,141.9h-2.8v-2.1h8.6v2.1h-2.8v9.5h-3.1v-9.5Z"/>
            <path class="st10" d="M227.5,140c.8-.1,1.9-.2,3.1-.2,2,0,3.4.3,4.4,1,1.3.9,2,2.4,2,4.7s-.8,4-2.2,4.9c-1.1.7-2.6,1.1-4.8,1.1s-1.9,0-2.5-.1v-11.3ZM230.6,149.6c.2,0,.4,0,.5,0,1.5,0,2.8-1.1,2.8-4.2s-.8-3.8-2.7-3.8-.4,0-.6,0v8Z"/>
          </g>
        </g>
      </g>
    </g>
  </g>
</svg>